<svg width="12" height="12" viewBox="0 0 12 12" fill="none" xmlns="http://www.w3.org/2000/svg">
<path d="M6.00001 6.93799L1.83301 11.104C1.70834 11.2293 1.55901 11.292 1.38501 11.292C1.21167 11.292 1.05567 11.2223 0.917007 11.083C0.777674 10.9443 0.708008 10.7883 0.708008 10.615C0.708008 10.441 0.777674 10.2847 0.917007 10.146L5.06201 5.99999L0.896008 1.83299C0.770674 1.70832 0.708008 1.55565 0.708008 1.37499C0.708008 1.19432 0.777674 1.03465 0.917007 0.895988C1.05567 0.757321 1.21167 0.687988 1.38501 0.687988C1.55901 0.687988 1.71534 0.757321 1.85401 0.895988L6.00001 5.06199L10.167 0.895988C10.2917 0.770655 10.4443 0.704655 10.625 0.697988C10.8057 0.691321 10.9653 0.757321 11.104 0.895988C11.2427 1.03465 11.312 1.19099 11.312 1.36499C11.312 1.53832 11.2427 1.69432 11.104 1.83299L6.93801 5.99999L11.104 10.167C11.2293 10.2917 11.2953 10.441 11.302 10.615C11.3087 10.7883 11.2427 10.9443 11.104 11.083C10.9653 11.2223 10.809 11.292 10.635 11.292C10.4617 11.292 10.3057 11.2223 10.167 11.083L6.00001 6.93799Z" fill="#1C1B1F"/>
</svg>
